<svg xmlns="http://www.w3.org/2000/svg" xmlns:v="https://svgstorm.com"
viewBox = "0 0 48 48"
width="48"
height="48">
<g fill="None" fill-opacity="0.0" stroke="#000000" stroke-opacity="0.00" stroke-width="0.3"><path d="
M 0.00 48.00 
L 48.00 48.00
L 48.00 0.00
L 0.00 0.00
L 0.00 48.00
M 31.00 43.00 
C 30.75 43.09 30.35 43.95 30.00 44.00
C 4.44 47.68 -7.21 14.48 17.23 4.23 C 41.67 -6.02 56.09 36.44 31.00 43.00 Z"/>
</g>
<g fill="None" fill-opacity="0.0" stroke="#2497EF" stroke-opacity="0.89" stroke-width="0.3"><path d="
M 30.00 44.00 
C 30.23 43.95 30.65 43.09 31.00 43.00
C 56.09 36.44 41.67 -6.02 17.23 4.23 C -7.21 14.48 4.44 47.68 30.00 44.00
M 32.00 8.00 
C 37.11 10.55 39.09 13.95 41.00 19.00
C 41.13 19.27 42.01 19.67 42.00 20.00
C 42.15 21.68 41.97 23.16 42.00 25.00
C 42.01 25.33 41.12 25.74 41.00 26.00
C 39.60 28.99 35.08 20.60 35.00 29.00
C 32.46 27.86 31.31 24.17 28.00 25.00
C 28.24 27.65 25.08 28.73 23.00 29.00
C 22.50 29.05 22.00 29.00 22.00 29.00
C 23.10 29.88 23.76 29.40 25.00 30.00
C 26.36 30.66 25.36 30.42 25.00 31.00
C 23.50 34.06 20.46 40.77 17.00 41.00
C 16.92 41.08 16.27 40.21 16.00 40.00
C 12.27 37.69 11.23 34.17 11.00 30.00
C 5.37 30.12 5.64 24.17 6.00 20.00
C 11.03 19.12 10.64 12.96 15.00 12.00
C 15.49 11.95 16.67 12.24 17.00 12.00
C 19.12 10.49 21.30 8.90 23.00 12.00
C 23.57 11.06 24.15 10.18 24.00 9.00
C 24.59 8.07 24.87 7.35 26.00 7.00
C 27.02 6.69 29.97 6.71 31.00 7.00
C 31.35 7.10 31.73 7.83 32.00 8.00
M 26.00 36.00 
C 25.81 42.37 20.13 37.76 26.00 36.00 Z"/>
</g>
<g fill="None" fill-opacity="0.0" stroke="#6FB69E" stroke-opacity="1.00" stroke-width="0.3"><path d="
M 24.00 9.00 
C 24.36 8.78 25.39 9.94 26.25 9.20 C 27.10 8.46 25.84 7.06 26.00 7.00
C 24.87 7.35 24.59 8.07 24.00 9.00
M 26.00 8.00 
C 26.74 8.74 25.18 7.18 26.00 8.00 Z"/>
</g>
<g fill="None" fill-opacity="0.0" stroke="#C7D942" stroke-opacity="1.00" stroke-width="0.3"><path d="
M 24.00 9.00 
C 24.15 10.18 23.57 11.06 23.00 12.00
C 21.30 8.90 19.12 10.49 17.00 12.00
C 17.19 11.90 12.87 14.83 15.00 12.00
C 10.64 12.96 11.03 19.12 6.00 20.00
C 5.64 24.17 5.37 30.12 11.00 30.00
C 11.23 34.17 12.27 37.69 16.00 40.00
C 16.32 40.20 17.09 40.91 17.00 41.00
C 20.46 40.77 23.50 34.06 25.00 31.00
C 25.20 30.60 25.00 30.00 25.00 30.00
C 23.76 29.40 23.10 29.88 22.00 29.00
C 21.65 28.97 21.16 28.34 21.00 28.00
C 20.48 27.04 19.81 26.20 20.00 25.00
C 21.29 25.44 22.21 26.58 22.00 28.00
C 22.35 28.03 23.03 28.98 23.00 29.00
C 25.08 28.73 28.24 27.65 28.00 25.00
C 31.31 24.17 32.46 27.86 35.00 29.00
C 35.08 20.60 39.60 28.99 41.00 26.00
C 39.13 26.34 41.55 23.98 42.00 25.00
C 41.97 23.16 42.15 21.68 42.00 20.00
C 41.92 20.08 41.13 19.35 41.00 19.00
C 39.09 13.95 37.11 10.55 32.00 8.00
C 31.67 7.83 31.26 7.12 31.00 7.00
C 29.97 6.71 27.02 6.69 26.00 7.00
C 25.84 7.06 27.10 8.46 26.25 9.20 C 25.39 9.94 24.36 8.78 24.00 9.00
M 14.00 18.00 
C 14.29 18.23 14.97 18.65 15.00 19.00
C 15.05 19.50 15.00 20.00 15.00 20.00
C 15.50 20.00 16.00 20.00 16.00 20.00
C 16.11 20.02 18.01 21.02 18.00 21.00
C 21.09 22.04 19.40 22.08 18.00 22.00
C 16.51 22.67 14.90 21.83 14.00 21.00
C 13.34 21.71 12.88 18.93 13.00 19.00
C 12.75 19.25 11.04 19.14 11.00 19.00
C 10.92 18.74 9.50 18.23 11.00 18.00
C 11.25 17.75 12.00 18.00 12.00 18.00
C 13.18 16.88 12.88 17.11 14.00 18.00
M 27.00 25.00 
C 24.58 25.31 25.42 23.44 27.00 24.00
C 27.16 23.88 28.24 24.55 27.00 25.00 Z"/>
</g>
<g fill="None" fill-opacity="0.0" stroke="#67B2A8" stroke-opacity="1.00" stroke-width="0.3"><path d="
M 32.00 8.00 
C 31.73 7.83 31.35 7.10 31.00 7.00
C 31.26 7.12 31.67 7.83 32.00 8.00 Z"/>
</g>
<g fill="None" fill-opacity="0.0" stroke="#53AABD" stroke-opacity="1.00" stroke-width="0.3"><path d="
M 26.00 8.00 
C 25.18 7.18 26.74 8.74 26.00 8.00 Z"/>
</g>
<g fill="None" fill-opacity="0.0" stroke="#66B2A7" stroke-opacity="1.00" stroke-width="0.3"><path d="
M 17.00 12.00 
C 16.67 12.24 15.49 11.95 15.00 12.00
C 12.87 14.83 17.19 11.90 17.00 12.00 Z"/>
</g>
<g fill="None" fill-opacity="0.0" stroke="#61B0AD" stroke-opacity="1.00" stroke-width="0.3"><path d="
M 12.00 18.00 
C 12.35 18.03 12.75 18.75 13.00 19.00
C 13.25 19.25 13.97 19.65 14.00 20.00
C 14.25 19.75 15.00 20.00 15.00 20.00
C 15.00 20.00 15.05 19.50 15.00 19.00
C 14.88 18.74 14.23 18.28 14.00 18.00
C 12.88 17.11 13.18 16.88 12.00 18.00 Z"/>
</g>
<g fill="None" fill-opacity="0.0" stroke="#68B3A6" stroke-opacity="1.00" stroke-width="0.3"><path d="
M 11.00 19.00 
C 10.77 18.66 11.00 18.00 11.00 18.00
C 9.50 18.23 10.92 18.74 11.00 19.00 Z"/>
</g>
<g fill="None" fill-opacity="0.0" stroke="#369EDD" stroke-opacity="1.00" stroke-width="0.3"><path d="
M 11.00 19.00 
C 11.04 19.14 12.75 19.25 13.00 19.00
C 12.75 18.75 12.35 18.03 12.00 18.00
C 12.00 18.00 11.25 17.75 11.00 18.00
C 11.00 18.00 10.77 18.66 11.00 19.00 Z"/>
</g>
<g fill="None" fill-opacity="0.0" stroke="#3FA3D2" stroke-opacity="1.00" stroke-width="0.3"><path d="
M 15.00 19.00 
C 14.97 18.65 14.29 18.23 14.00 18.00
C 14.23 18.28 14.88 18.74 15.00 19.00 Z"/>
</g>
<g fill="None" fill-opacity="0.0" stroke="#83BE88" stroke-opacity="1.00" stroke-width="0.3"><path d="
M 14.00 21.00 
C 13.75 20.74 14.00 20.00 14.00 20.00
C 13.97 19.65 13.25 19.25 13.00 19.00
C 12.88 18.93 13.34 21.71 14.00 21.00 Z"/>
</g>
<g fill="None" fill-opacity="0.0" stroke="#6BB4A3" stroke-opacity="1.00" stroke-width="0.3"><path d="
M 42.00 20.00 
C 42.01 19.67 41.13 19.27 41.00 19.00
C 41.13 19.35 41.92 20.08 42.00 20.00 Z"/>
</g>
<g fill="None" fill-opacity="0.0" stroke="#2296F2" stroke-opacity="1.00" stroke-width="0.3"><path d="
M 14.00 21.00 
C 14.50 21.53 16.39 20.37 16.00 20.00
C 16.00 20.00 15.50 20.00 15.00 20.00
C 15.00 20.00 14.25 19.75 14.00 20.00
C 14.00 20.00 13.75 20.74 14.00 21.00 Z"/>
</g>
<g fill="None" fill-opacity="0.0" stroke="#50A9C0" stroke-opacity="1.00" stroke-width="0.3"><path d="
M 14.00 21.00 
C 14.90 21.83 16.51 22.67 18.00 22.00
C 17.78 21.86 18.00 21.00 18.00 21.00
C 18.01 21.02 16.11 20.02 16.00 20.00
C 16.39 20.37 14.50 21.53 14.00 21.00 Z"/>
</g>
<g fill="None" fill-opacity="0.0" stroke="#7DBC90" stroke-opacity="1.00" stroke-width="0.3"><path d="
M 18.00 22.00 
C 19.40 22.08 21.09 22.04 18.00 21.00
C 18.00 21.00 17.78 21.86 18.00 22.00 Z"/>
</g>
<g fill="None" fill-opacity="0.0" stroke="#349DDE" stroke-opacity="1.00" stroke-width="0.3"><path d="
M 27.00 25.00 
C 26.76 24.81 27.00 24.00 27.00 24.00
C 25.42 23.44 24.58 25.31 27.00 25.00 Z"/>
</g>
<g fill="None" fill-opacity="0.0" stroke="#63B1AC" stroke-opacity="1.00" stroke-width="0.3"><path d="
M 27.00 25.00 
C 28.24 24.55 27.16 23.88 27.00 24.00
C 27.00 24.00 26.76 24.81 27.00 25.00 Z"/>
</g>
<g fill="None" fill-opacity="0.0" stroke="#43A4D0" stroke-opacity="1.00" stroke-width="0.3"><path d="
M 21.00 28.00 
C 21.36 27.77 22.00 28.00 22.00 28.00
C 22.21 26.58 21.29 25.44 20.00 25.00
C 19.81 26.20 20.48 27.04 21.00 28.00 Z"/>
</g>
<g fill="None" fill-opacity="0.0" stroke="#65B1A9" stroke-opacity="1.00" stroke-width="0.3"><path d="
M 41.00 26.00 
C 41.12 25.74 42.01 25.33 42.00 25.00
C 41.55 23.98 39.13 26.34 41.00 26.00 Z"/>
</g>
<g fill="None" fill-opacity="0.0" stroke="#63B1AB" stroke-opacity="1.00" stroke-width="0.3"><path d="
M 22.00 29.00 
C 22.00 29.00 22.50 29.05 23.00 29.00
C 23.03 28.98 22.35 28.03 22.00 28.00
C 22.00 28.00 21.36 27.77 21.00 28.00
C 21.16 28.34 21.65 28.97 22.00 29.00 Z"/>
</g>
<g fill="None" fill-opacity="0.0" stroke="#70B69E" stroke-opacity="1.00" stroke-width="0.3"><path d="
M 25.00 31.00 
C 25.36 30.42 26.36 30.66 25.00 30.00
C 25.00 30.00 25.20 30.60 25.00 31.00 Z"/>
</g>
<g fill="None" fill-opacity="0.0" stroke="#A0CA70" stroke-opacity="1.00" stroke-width="0.3"><path d="
M 26.00 36.00 
C 20.13 37.76 25.81 42.37 26.00 36.00 Z"/>
</g>
<g fill="None" fill-opacity="0.0" stroke="#67B2A8" stroke-opacity="1.00" stroke-width="0.3"><path d="
M 17.00 41.00 
C 17.09 40.91 16.32 40.20 16.00 40.00
C 16.27 40.21 16.92 41.08 17.00 41.00 Z"/>
</g>
<g fill="None" fill-opacity="0.0" stroke="#00FFFF" stroke-opacity="0.00" stroke-width="0.3"><path d="
M 30.00 44.00 
C 30.35 43.95 30.75 43.09 31.00 43.00
C 30.65 43.09 30.23 43.95 30.00 44.00 Z"/>
</g>
<g fill="#000000" fill-opacity="0.00" stroke="None">
<path d="
M 0.00 48.00 
L 48.00 48.00
L 48.00 0.00
L 0.00 0.00
L 0.00 48.00
M 31.00 43.00 
C 30.75 43.09 30.35 43.95 30.00 44.00
C 4.44 47.68 -7.21 14.48 17.23 4.23 C 41.67 -6.02 56.09 36.44 31.00 43.00 Z"/>
</g>
<g fill="#2497EF" fill-opacity="0.89" stroke="None">
<path d="
M 30.00 44.00 
C 30.23 43.95 30.65 43.09 31.00 43.00
C 56.09 36.44 41.67 -6.02 17.23 4.23 C -7.21 14.48 4.44 47.68 30.00 44.00
M 32.00 8.00 
C 37.11 10.55 39.09 13.95 41.00 19.00
C 41.13 19.27 42.01 19.67 42.00 20.00
C 42.15 21.68 41.97 23.16 42.00 25.00
C 42.01 25.33 41.12 25.74 41.00 26.00
C 39.60 28.99 35.08 20.60 35.00 29.00
C 32.46 27.86 31.31 24.17 28.00 25.00
C 28.24 27.65 25.08 28.73 23.00 29.00
C 22.50 29.05 22.00 29.00 22.00 29.00
C 23.10 29.88 23.76 29.40 25.00 30.00
C 26.36 30.66 25.36 30.42 25.00 31.00
C 23.50 34.06 20.46 40.77 17.00 41.00
C 16.92 41.08 16.27 40.21 16.00 40.00
C 12.27 37.69 11.23 34.17 11.00 30.00
C 5.37 30.12 5.64 24.17 6.00 20.00
C 11.03 19.12 10.64 12.96 15.00 12.00
C 15.49 11.95 16.67 12.24 17.00 12.00
C 19.12 10.49 21.30 8.90 23.00 12.00
C 23.57 11.06 24.15 10.18 24.00 9.00
C 24.59 8.07 24.87 7.35 26.00 7.00
C 27.02 6.69 29.97 6.71 31.00 7.00
C 31.35 7.10 31.73 7.83 32.00 8.00
M 26.00 36.00 
C 25.81 42.37 20.13 37.76 26.00 36.00 Z"/>
</g>
<g fill="#6FB69E" fill-opacity="1.00" stroke="None">
<path d="
M 24.00 9.00 
C 24.36 8.78 25.39 9.94 26.25 9.20 C 27.10 8.46 25.84 7.06 26.00 7.00
C 24.87 7.35 24.59 8.07 24.00 9.00
M 26.00 8.00 
C 26.74 8.74 25.18 7.18 26.00 8.00 Z"/>
</g>
<g fill="#C7D942" fill-opacity="1.00" stroke="None">
<path d="
M 24.00 9.00 
C 24.15 10.18 23.57 11.06 23.00 12.00
C 21.30 8.90 19.12 10.49 17.00 12.00
C 17.19 11.90 12.87 14.83 15.00 12.00
C 10.64 12.96 11.03 19.12 6.00 20.00
C 5.64 24.17 5.37 30.12 11.00 30.00
C 11.23 34.17 12.27 37.69 16.00 40.00
C 16.32 40.20 17.09 40.91 17.00 41.00
C 20.46 40.77 23.50 34.06 25.00 31.00
C 25.20 30.60 25.00 30.00 25.00 30.00
C 23.76 29.40 23.10 29.88 22.00 29.00
C 21.65 28.97 21.16 28.34 21.00 28.00
C 20.48 27.04 19.81 26.20 20.00 25.00
C 21.29 25.44 22.21 26.58 22.00 28.00
C 22.35 28.03 23.03 28.98 23.00 29.00
C 25.08 28.73 28.24 27.65 28.00 25.00
C 31.31 24.17 32.46 27.86 35.00 29.00
C 35.08 20.60 39.60 28.99 41.00 26.00
C 39.13 26.34 41.55 23.98 42.00 25.00
C 41.97 23.16 42.15 21.68 42.00 20.00
C 41.92 20.08 41.13 19.35 41.00 19.00
C 39.09 13.95 37.11 10.55 32.00 8.00
C 31.67 7.83 31.26 7.12 31.00 7.00
C 29.97 6.71 27.02 6.69 26.00 7.00
C 25.84 7.06 27.10 8.46 26.25 9.20 C 25.39 9.94 24.36 8.78 24.00 9.00
M 14.00 18.00 
C 14.29 18.23 14.97 18.65 15.00 19.00
C 15.05 19.50 15.00 20.00 15.00 20.00
C 15.50 20.00 16.00 20.00 16.00 20.00
C 16.11 20.02 18.01 21.02 18.00 21.00
C 21.09 22.04 19.40 22.08 18.00 22.00
C 16.51 22.67 14.90 21.83 14.00 21.00
C 13.34 21.71 12.88 18.93 13.00 19.00
C 12.75 19.25 11.04 19.14 11.00 19.00
C 10.92 18.74 9.50 18.23 11.00 18.00
C 11.25 17.75 12.00 18.00 12.00 18.00
C 13.18 16.88 12.88 17.11 14.00 18.00
M 27.00 25.00 
C 24.58 25.31 25.42 23.44 27.00 24.00
C 27.16 23.88 28.24 24.55 27.00 25.00 Z"/>
</g>
<g fill="#67B2A8" fill-opacity="1.00" stroke="None">
<path d="
M 32.00 8.00 
C 31.73 7.83 31.35 7.10 31.00 7.00
C 31.26 7.12 31.67 7.83 32.00 8.00 Z"/>
</g>
<g fill="#53AABD" fill-opacity="1.00" stroke="None">
<path d="
M 26.00 8.00 
C 25.18 7.18 26.74 8.74 26.00 8.00 Z"/>
</g>
<g fill="#66B2A7" fill-opacity="1.00" stroke="None">
<path d="
M 17.00 12.00 
C 16.67 12.24 15.49 11.95 15.00 12.00
C 12.87 14.83 17.19 11.90 17.00 12.00 Z"/>
</g>
<g fill="#61B0AD" fill-opacity="1.00" stroke="None">
<path d="
M 12.00 18.00 
C 12.35 18.03 12.75 18.75 13.00 19.00
C 13.25 19.25 13.97 19.65 14.00 20.00
C 14.25 19.75 15.00 20.00 15.00 20.00
C 15.00 20.00 15.05 19.50 15.00 19.00
C 14.88 18.74 14.23 18.28 14.00 18.00
C 12.88 17.11 13.18 16.88 12.00 18.00 Z"/>
</g>
<g fill="#68B3A6" fill-opacity="1.00" stroke="None">
<path d="
M 11.00 19.00 
C 10.77 18.66 11.00 18.00 11.00 18.00
C 9.50 18.23 10.92 18.74 11.00 19.00 Z"/>
</g>
<g fill="#369EDD" fill-opacity="1.00" stroke="None">
<path d="
M 11.00 19.00 
C 11.04 19.14 12.75 19.25 13.00 19.00
C 12.75 18.75 12.35 18.03 12.00 18.00
C 12.00 18.00 11.25 17.75 11.00 18.00
C 11.00 18.00 10.77 18.66 11.00 19.00 Z"/>
</g>
<g fill="#3FA3D2" fill-opacity="1.00" stroke="None">
<path d="
M 15.00 19.00 
C 14.97 18.65 14.29 18.23 14.00 18.00
C 14.23 18.28 14.88 18.74 15.00 19.00 Z"/>
</g>
<g fill="#83BE88" fill-opacity="1.00" stroke="None">
<path d="
M 14.00 21.00 
C 13.75 20.74 14.00 20.00 14.00 20.00
C 13.97 19.65 13.25 19.25 13.00 19.00
C 12.88 18.93 13.34 21.71 14.00 21.00 Z"/>
</g>
<g fill="#6BB4A3" fill-opacity="1.00" stroke="None">
<path d="
M 42.00 20.00 
C 42.01 19.67 41.13 19.27 41.00 19.00
C 41.13 19.35 41.92 20.08 42.00 20.00 Z"/>
</g>
<g fill="#2296F2" fill-opacity="1.00" stroke="None">
<path d="
M 14.00 21.00 
C 14.50 21.53 16.39 20.37 16.00 20.00
C 16.00 20.00 15.50 20.00 15.00 20.00
C 15.00 20.00 14.25 19.75 14.00 20.00
C 14.00 20.00 13.75 20.74 14.00 21.00 Z"/>
</g>
<g fill="#50A9C0" fill-opacity="1.00" stroke="None">
<path d="
M 14.00 21.00 
C 14.90 21.83 16.51 22.67 18.00 22.00
C 17.78 21.86 18.00 21.00 18.00 21.00
C 18.01 21.02 16.11 20.02 16.00 20.00
C 16.39 20.37 14.50 21.53 14.00 21.00 Z"/>
</g>
<g fill="#7DBC90" fill-opacity="1.00" stroke="None">
<path d="
M 18.00 22.00 
C 19.40 22.08 21.09 22.04 18.00 21.00
C 18.00 21.00 17.78 21.86 18.00 22.00 Z"/>
</g>
<g fill="#349DDE" fill-opacity="1.00" stroke="None">
<path d="
M 27.00 25.00 
C 26.76 24.81 27.00 24.00 27.00 24.00
C 25.42 23.44 24.58 25.31 27.00 25.00 Z"/>
</g>
<g fill="#63B1AC" fill-opacity="1.00" stroke="None">
<path d="
M 27.00 25.00 
C 28.24 24.55 27.16 23.88 27.00 24.00
C 27.00 24.00 26.76 24.81 27.00 25.00 Z"/>
</g>
<g fill="#43A4D0" fill-opacity="1.00" stroke="None">
<path d="
M 21.00 28.00 
C 21.36 27.77 22.00 28.00 22.00 28.00
C 22.21 26.58 21.29 25.44 20.00 25.00
C 19.81 26.20 20.48 27.04 21.00 28.00 Z"/>
</g>
<g fill="#65B1A9" fill-opacity="1.00" stroke="None">
<path d="
M 41.00 26.00 
C 41.12 25.74 42.01 25.33 42.00 25.00
C 41.55 23.98 39.13 26.34 41.00 26.00 Z"/>
</g>
<g fill="#63B1AB" fill-opacity="1.00" stroke="None">
<path d="
M 22.00 29.00 
C 22.00 29.00 22.50 29.05 23.00 29.00
C 23.03 28.98 22.35 28.03 22.00 28.00
C 22.00 28.00 21.36 27.77 21.00 28.00
C 21.16 28.34 21.65 28.97 22.00 29.00 Z"/>
</g>
<g fill="#70B69E" fill-opacity="1.00" stroke="None">
<path d="
M 25.00 31.00 
C 25.36 30.42 26.36 30.66 25.00 30.00
C 25.00 30.00 25.20 30.60 25.00 31.00 Z"/>
</g>
<g fill="#A0CA70" fill-opacity="1.00" stroke="None">
<path d="
M 26.00 36.00 
C 20.13 37.76 25.81 42.37 26.00 36.00 Z"/>
</g>
<g fill="#67B2A8" fill-opacity="1.00" stroke="None">
<path d="
M 17.00 41.00 
C 17.09 40.91 16.32 40.20 16.00 40.00
C 16.27 40.21 16.92 41.08 17.00 41.00 Z"/>
</g>
<g fill="#00FFFF" fill-opacity="0.00" stroke="None">
<path d="
M 30.00 44.00 
C 30.35 43.95 30.75 43.09 31.00 43.00
C 30.65 43.09 30.23 43.95 30.00 44.00 Z"/>
</g>
</svg>