<svg xmlns="http://www.w3.org/2000/svg" xmlns:v="https://svgstorm.com"
viewBox = "0 0 512 512"
width="512"
height="512">
<g fill="None" fill-opacity="0.0" stroke="#000000" stroke-opacity="0.01" stroke-width="0.3"><path d="
M 0.00 200.00 
C 4.68 141.49 19.23 103.27 59.75 61.75 C 100.28 20.23 137.89 7.75 192.00 0.00
L 0.00 0.00
L 0.00 200.00 Z"/>
</g>
<g fill="None" fill-opacity="0.0" stroke="#808080" stroke-opacity="1.00" stroke-width="0.3"><path d="
M 0.00 200.00 
L 0.00 223.00
C 2.73 252.52 13.33 280.02 24.59 302.75 C 35.84 325.49 60.85 355.69 86.25 373.19 C 111.65 390.69 131.41 399.88 161.25 406.80 C 191.09 413.73 231.34 413.50 258.75 405.60 C 286.16 397.71 309.38 386.15 333.00 368.00
C 348.92 384.64 365.84 401.60 382.25 417.75 C 398.65 433.91 415.33 451.50 431.75 467.25 C 448.18 482.99 464.68 503.31 480.00 512.00
L 493.00 512.00
C 500.55 508.59 510.06 501.15 512.00 491.00
L 512.00 480.00
C 503.46 463.29 482.84 447.42 467.25 430.75 C 451.65 414.08 432.99 397.55 417.25 380.75 C 401.50 363.96 381.43 347.77 369.00 330.00
C 387.78 307.95 398.45 284.28 405.80 256.75 C 413.15 229.22 414.23 191.46 407.20 161.75 C 400.17 132.05 390.71 111.16 373.43 86.23 C 356.15 61.30 325.99 35.94 303.23 24.42 C 280.47 12.91 251.19 2.73 222.00 0.00
L 192.00 0.00
C 137.89 7.75 100.28 20.23 59.75 61.75 C 19.23 103.27 4.68 141.49 0.00 200.00
M 194.00 51.00 
C 229.05 46.76 256.12 59.43 279.92 70.13 C 303.72 80.83 331.74 111.46 342.39 133.75 C 353.05 156.05 365.24 187.62 360.07 222.07 C 354.90 256.52 348.54 271.78 330.43 297.77 C 312.31 323.75 283.69 342.00 260.25 350.40 C 236.81 358.80 195.57 365.54 168.25 356.60 C 140.93 347.67 120.14 338.88 96.25 314.75 C 72.36 290.62 63.96 270.65 55.40 242.25 C 46.83 213.85 53.22 172.42 62.13 149.08 C 71.04 125.74 92.07 96.34 117.25 79.81 C 142.44 63.28 160.90 55.00 194.00 51.00 Z"/>
</g>
<g fill="None" fill-opacity="0.0" stroke="#000000" stroke-opacity="0.00" stroke-width="0.3"><path d="
M 512.00 480.00 
L 512.00 0.00
L 222.00 0.00
C 251.19 2.73 280.47 12.91 303.23 24.42 C 325.99 35.94 356.15 61.30 373.43 86.23 C 390.71 111.16 400.17 132.05 407.20 161.75 C 414.23 191.46 413.15 229.22 405.80 256.75 C 398.45 284.28 387.78 307.95 369.00 330.00
C 381.43 347.77 401.50 363.96 417.25 380.75 C 432.99 397.55 451.65 414.08 467.25 430.75 C 482.84 447.42 503.46 463.29 512.00 480.00 Z"/>
</g>
<g fill="None" fill-opacity="0.0" stroke="#000000" stroke-opacity="0.00" stroke-width="0.3"><path d="
M 194.00 51.00 
C 160.90 55.00 142.44 63.28 117.25 79.81 C 92.07 96.34 71.04 125.74 62.13 149.08 C 53.22 172.42 46.83 213.85 55.40 242.25 C 63.96 270.65 72.36 290.62 96.25 314.75 C 120.14 338.88 140.93 347.67 168.25 356.60 C 195.57 365.54 236.81 358.80 260.25 350.40 C 283.69 342.00 312.31 323.75 330.43 297.77 C 348.54 271.78 354.90 256.52 360.07 222.07 C 365.24 187.62 353.05 156.05 342.39 133.75 C 331.74 111.46 303.72 80.83 279.92 70.13 C 256.12 59.43 229.05 46.76 194.00 51.00 Z"/>
</g>
<g fill="None" fill-opacity="0.0" stroke="#000000" stroke-opacity="0.00" stroke-width="0.3"><path d="
M 0.00 512.00 
L 480.00 512.00
C 464.68 503.31 448.18 482.99 431.75 467.25 C 415.33 451.50 398.65 433.91 382.25 417.75 C 365.84 401.60 348.92 384.64 333.00 368.00
C 309.38 386.15 286.16 397.71 258.75 405.60 C 231.34 413.50 191.09 413.73 161.25 406.80 C 131.41 399.88 111.65 390.69 86.25 373.19 C 60.85 355.69 35.84 325.49 24.59 302.75 C 13.33 280.02 2.73 252.52 0.00 223.00
L 0.00 512.00 Z"/>
</g>
<g fill="None" fill-opacity="0.0" stroke="#000000" stroke-opacity="0.06" stroke-width="0.3"><path d="
M 493.00 512.00 
L 512.00 512.00
L 512.00 491.00
C 510.06 501.15 500.55 508.59 493.00 512.00 Z"/>
</g>
<g fill="#000000" fill-opacity="0.01" stroke="None">
<path d="
M 0.00 200.00 
C 4.68 141.49 19.23 103.27 59.75 61.75 C 100.28 20.23 137.89 7.75 192.00 0.00
L 0.00 0.00
L 0.00 200.00 Z"/>
</g>
<g fill="#808080" fill-opacity="1.00" stroke="None">
<path d="
M 0.00 200.00 
L 0.00 223.00
C 2.73 252.52 13.33 280.02 24.59 302.75 C 35.84 325.49 60.85 355.69 86.25 373.19 C 111.65 390.69 131.41 399.88 161.25 406.80 C 191.09 413.73 231.34 413.50 258.75 405.60 C 286.16 397.71 309.38 386.15 333.00 368.00
C 348.92 384.64 365.84 401.60 382.25 417.75 C 398.65 433.91 415.33 451.50 431.75 467.25 C 448.18 482.99 464.68 503.31 480.00 512.00
L 493.00 512.00
C 500.55 508.59 510.06 501.15 512.00 491.00
L 512.00 480.00
C 503.46 463.29 482.84 447.42 467.25 430.75 C 451.65 414.08 432.99 397.55 417.25 380.75 C 401.50 363.96 381.43 347.77 369.00 330.00
C 387.78 307.95 398.45 284.28 405.80 256.75 C 413.15 229.22 414.23 191.46 407.20 161.75 C 400.17 132.05 390.71 111.16 373.43 86.23 C 356.15 61.30 325.99 35.94 303.23 24.42 C 280.47 12.91 251.19 2.73 222.00 0.00
L 192.00 0.00
C 137.89 7.75 100.28 20.23 59.75 61.75 C 19.23 103.27 4.68 141.49 0.00 200.00
M 194.00 51.00 
C 229.05 46.76 256.12 59.43 279.92 70.13 C 303.72 80.83 331.74 111.46 342.39 133.75 C 353.05 156.05 365.24 187.62 360.07 222.07 C 354.90 256.52 348.54 271.78 330.43 297.77 C 312.31 323.75 283.69 342.00 260.25 350.40 C 236.81 358.80 195.57 365.54 168.25 356.60 C 140.93 347.67 120.14 338.88 96.25 314.75 C 72.36 290.62 63.96 270.65 55.40 242.25 C 46.83 213.85 53.22 172.42 62.13 149.08 C 71.04 125.74 92.07 96.34 117.25 79.81 C 142.44 63.28 160.90 55.00 194.00 51.00 Z"/>
</g>
<g fill="#000000" fill-opacity="0.00" stroke="None">
<path d="
M 512.00 480.00 
L 512.00 0.00
L 222.00 0.00
C 251.19 2.73 280.47 12.91 303.23 24.42 C 325.99 35.94 356.15 61.30 373.43 86.23 C 390.71 111.16 400.17 132.05 407.20 161.75 C 414.23 191.46 413.15 229.22 405.80 256.75 C 398.45 284.28 387.78 307.95 369.00 330.00
C 381.43 347.77 401.50 363.96 417.25 380.75 C 432.99 397.55 451.65 414.08 467.25 430.75 C 482.84 447.42 503.46 463.29 512.00 480.00 Z"/>
</g>
<g fill="#000000" fill-opacity="0.00" stroke="None">
<path d="
M 194.00 51.00 
C 160.90 55.00 142.44 63.28 117.25 79.81 C 92.07 96.34 71.04 125.74 62.13 149.08 C 53.22 172.42 46.83 213.85 55.40 242.25 C 63.96 270.65 72.36 290.62 96.25 314.75 C 120.14 338.88 140.93 347.67 168.25 356.60 C 195.57 365.54 236.81 358.80 260.25 350.40 C 283.69 342.00 312.31 323.75 330.43 297.77 C 348.54 271.78 354.90 256.52 360.07 222.07 C 365.24 187.62 353.05 156.05 342.39 133.75 C 331.74 111.46 303.72 80.83 279.92 70.13 C 256.12 59.43 229.05 46.76 194.00 51.00 Z"/>
</g>
<g fill="#000000" fill-opacity="0.00" stroke="None">
<path d="
M 0.00 512.00 
L 480.00 512.00
C 464.68 503.31 448.18 482.99 431.75 467.25 C 415.33 451.50 398.65 433.91 382.25 417.75 C 365.84 401.60 348.92 384.64 333.00 368.00
C 309.38 386.15 286.16 397.71 258.75 405.60 C 231.34 413.50 191.09 413.73 161.25 406.80 C 131.41 399.88 111.65 390.69 86.25 373.19 C 60.85 355.69 35.84 325.49 24.59 302.75 C 13.33 280.02 2.73 252.52 0.00 223.00
L 0.00 512.00 Z"/>
</g>
<g fill="#000000" fill-opacity="0.06" stroke="None">
<path d="
M 493.00 512.00 
L 512.00 512.00
L 512.00 491.00
C 510.06 501.15 500.55 508.59 493.00 512.00 Z"/>
</g>
</svg>